<svg xmlns="http://www.w3.org/2000/svg" viewBox="0 0 70 70" width="70" height="70"><defs><style>.a,.b{fill:none;}.b{stroke:#000;stroke-linecap:square;stroke-miterlimit:10;stroke-width:1.5px;}.c{fill:#000;}</style></defs><rect class="a" width="70" height="70"/><path class="b" d="M44.94,33.44a12.92,12.92,0,0,0-.79-3.8l-3.77-.51c-.19-.31-.39-.61-.61-.9l.88-3.73a13.15,13.15,0,0,0-3.22-2.13l-3,2.34a7.76,7.76,0,0,0-1.07-.2l-2-3.27a12.67,12.67,0,0,0-3.76.8l-.51,3.81a7.86,7.86,0,0,0-.89.62l-3.7-.9a13.09,13.09,0,0,0-2.1,3.26l2.31,3.05c-.08.35-.15.71-.2,1.08l-3.23,2a12.92,12.92,0,0,0,.79,3.8l3.77.51a9.62,9.62,0,0,0,.61.91l-.88,3.73A12.83,12.83,0,0,0,26.78,46l3-2.33c.34.08.7.15,1.06.2l2,3.26a12.49,12.49,0,0,0,3.77-.8l.5-3.8a9.4,9.4,0,0,0,.89-.62l3.7.89a13.21,13.21,0,0,0,2.1-3.25l-2.31-3.06c.08-.35.15-.71.2-1.07Z"/><ellipse class="b" cx="32.11" cy="34.2" rx="2.81" ry="2.84"/><ellipse class="b" cx="32.11" cy="34.2" rx="6.25" ry="6.31"/><rect class="b" x="6.2" y="5.46" width="14.14" height="14.14"/><polyline class="b" points="9.17 13.81 11.13 15.78 17.36 9.29"/><rect class="b" x="53.86" y="21.24" width="14.14" height="14.14"/><polyline class="b" points="56.83 29.59 58.79 31.56 65.02 25.07"/><rect class="b" x="18.79" y="54.45" width="14.14" height="14.14"/><polyline class="b" points="21.76 62.8 23.72 64.77 29.95 58.27"/><path class="b" d="M11.22,53.46A28.92,28.92,0,0,1,6.06,23.62"/><polygon class="c" points="9.7 43.24 8.28 43.73 11.49 53.02 3.06 47.96 2.29 49.25 14.25 56.43 9.7 43.24"/><path class="b" d="M60.27,43.56A28.89,28.89,0,0,1,37,63"/><polygon class="c" points="52.19 49.99 53.32 50.97 59.76 43.55 59.6 53.37 61.1 53.4 61.32 39.45 52.19 49.99"/><path class="b" d="M27.17,6a28.88,28.88,0,0,1,26.49,8.25,28.52,28.52,0,0,1,1.93,2.21"/><polygon class="c" points="36.78 9.84 37.06 8.36 27.42 6.49 36.01 1.72 35.29 0.41 23.09 7.17 36.78 9.84"/></svg>