<svg xmlns="http://www.w3.org/2000/svg" viewBox="0 0 70 70" width="70" height="70"><defs><style>.b{fill:none;stroke:#000;stroke-linecap:round;stroke-miterlimit:10;stroke-width:1.5px}</style></defs><path style="fill:none" d="M0 0h70v70H0z"/><path class="b" d="M31.11 58a4.36 4.36 0 0 1-4.34-4.34v-9.93a4.35 4.35 0 0 1 4.34-4.33h10.26v-9.89H3v9.89h9.78a4.34 4.34 0 0 1 4.32 4.33v9.92A4.34 4.34 0 0 1 12.78 58H3v9.89h38.37V58zM67 11.09V2.12H32.22M67 36.91v-9h-9.31A3.93 3.93 0 0 1 54 25.24M23.41 10.38l8.81-8.26M16.24 17.1l3.1-2.91M3 29.51l8.03-7.52M41.37 29.51 67 2.12M67 11.09 41.37 39.4M41.37 57.99 67 27.94M41.37 67.88 67 36.91M3 57.99l14.1-12.78"/></svg>