<svg xmlns="http://www.w3.org/2000/svg" viewBox="0 0 70 70" width="70" height="70"><defs><style>.b{fill:none;stroke:#000;stroke-linecap:square;stroke-miterlimit:10;stroke-width:1.5px}</style></defs><path style="fill:none" d="M0 0h70v70H0z"/><path class="b" d="M68.5 22.53a20.77 20.77 0 0 0-1.27-6.08l-6-.82a16 16 0 0 0-1-1.44l1.42-6a20.76 20.76 0 0 0-5.16-3.39l-4.86 3.75a13.93 13.93 0 0 0-1.71-.32L46.74 3a20.2 20.2 0 0 0-6 1.28l-.8 6.09a14.59 14.59 0 0 0-1.43 1l-5.95-1.43a20.94 20.94 0 0 0-3.36 5.21L32.89 20c-.13.57-.24 1.14-.32 1.73L27.4 25a20.91 20.91 0 0 0 1.27 6.09l6 .81a15.85 15.85 0 0 0 1 1.44l-1.41 6a20.31 20.31 0 0 0 5.16 3.39L44.27 39a13.43 13.43 0 0 0 1.7.32l3.18 5.23a20.07 20.07 0 0 0 6-1.28l.85-6.14c.5-.31 1-.64 1.43-1l5.92 1.42a20.75 20.75 0 0 0 3.36-5.21L63 27.47a14.25 14.25 0 0 0 .32-1.73z"/><ellipse class="b" cx="47.95" cy="23.75" rx="6.56" ry="6.62"/><path class="b" d="M58.88 52.52H44.9M40.36 52.52H27.4v5.63h12.89M45.9 58.15h-1M50.83 58.15h-1M1.5 17A8.77 8.77 0 1 1 19 17M10.26 67A8.85 8.85 0 1 1 19 58.15"/><path class="b" d="M67.66 48.7v10a8.29 8.29 0 0 1-8.22 8.3H9.73a8.29 8.29 0 0 1-8.23-8.31V17.87M19.03 45.46V17.59"/></svg>