<svg xmlns="http://www.w3.org/2000/svg" viewBox="0 0 70 70" width="70" height="70"><defs><style>.a,.b{fill:none;}.b{stroke:#000;stroke-miterlimit:10;stroke-width:1.5px;}</style></defs><rect class="a" width="70" height="70"/><rect class="b" x="3.75" y="31.62" width="41.13" height="19.73"/><line class="b" x1="9.33" y1="35.54" x2="9.33" y2="46.68"/><line class="b" x1="16.67" y1="35.54" x2="16.67" y2="46.68"/><line class="b" x1="24.01" y1="35.54" x2="24.01" y2="46.68"/><line class="b" x1="31.35" y1="35.54" x2="31.35" y2="46.68"/><line class="b" x1="38.69" y1="35.54" x2="38.69" y2="46.68"/><line class="b" x1="17.49" y1="59.67" x2="16.87" y2="59.67"/><polyline class="b" points="25.8 54.84 48.8 54.84 48.8 59.67 28.6 59.67"/><line class="b" x1="14.06" y1="54.84" x2="20.29" y2="54.84"/><polyline class="b" points="5.75 59.67 2 59.67 2 54.84 8.56 54.84"/><path class="b" d="M63.65,59.67H68V51.51c0-2.64-.61-6.31-3.46-6.31"/><polyline class="b" points="52.54 59.67 48.8 59.67 48.8 34.58 64.72 34.58"/><polygon class="b" points="64.54 45.2 55.44 45.2 55.44 34.58 62.38 34.58 64.54 45.2"/><polyline class="b" points="58.4 45.2 58.4 49.89 48.8 49.89"/><circle class="b" cx="11.31" cy="59.67" r="5.56"/><circle class="b" cx="23.05" cy="59.67" r="5.56"/><circle class="b" cx="58.1" cy="59.67" r="5.56"/><path class="b" d="M24.32,15.11a2.77,2.77,0,1,1-2.77,2.76,2.59,2.59,0,0,1,.09-.68"/><polyline class="b" points="3.75 31.62 24.32 23.01 44.88 31.62"/><line class="b" x1="24.32" y1="19.97" x2="24.32" y2="23.01"/><line class="b" x1="24.32" y1="9.99" x2="24.32" y2="16.06"/><polygon class="b" points="23 9.99 25.68 9.99 26.93 4.77 21.7 4.77 23 9.99"/></svg>