<svg xmlns="http://www.w3.org/2000/svg" viewBox="0 0 70 70" width="70" height="70"><defs><style>.cls-2,.cls-3,.cls-4{fill:none;stroke:#000;stroke-miterlimit:10;stroke-width:1.5px}.cls-2{stroke-linecap:square}.cls-3{stroke-linecap:round}</style></defs><g id="Layer_2" data-name="Layer 2"><g id="Layer_1-2" data-name="Layer 1"><path style="fill:none" d="M0 0h70v70H0z"/><path class="cls-2" d="M36.25 51.24h4.88v2.57h-4.88zM56.91 51.24h4.88v2.57h-4.88zM46.17 25.03h6.04M36.12 17.43a10.23 10.23 0 0 0-.64-3L32.42 14a8.46 8.46 0 0 0-.49-.73l.71-3A10.38 10.38 0 0 0 30 8.55l-2.44 1.87a8.34 8.34 0 0 0-.87-.16l-1.58-2.62a10.36 10.36 0 0 0-3.05.64l-.4 3.06a7.15 7.15 0 0 0-.73.49l-3-.71a10.12 10.12 0 0 0-1.7 2.61l1.87 2.44a6.35 6.35 0 0 0-.1.83l-2.62 1.61A10.36 10.36 0 0 0 16 21.7l3 .4c.16.25.32.5.5.73l-.72 3a10.47 10.47 0 0 0 2.61 1.7l2.45-1.87a7.88 7.88 0 0 0 .87.16l1.6 2.62a10.23 10.23 0 0 0 3.05-.64l.41-3.05c.25-.16.49-.32.73-.5l3 .72a10.76 10.76 0 0 0 1.7-2.61l-1.86-2.46a7.88 7.88 0 0 0 .16-.9z"/><circle class="cls-2" cx="25.72" cy="18.04" r="3.32"/><path class="cls-2" d="M17.75 32.29a8.06 8.06 0 0 0-.31-2.41l-2.35-.5c-.11-.21-.22-.41-.34-.6l.74-2.28a8.23 8.23 0 0 0-1.93-1.5l-2 1.31q-.33-.11-.66-.18L9.79 24a8.08 8.08 0 0 0-2.42.31l-.5 2.35c-.2.1-.4.22-.59.34L4 26.27a8.25 8.25 0 0 0-1.49 1.93l1.31 2a3.57 3.57 0 0 0-.18.66L1.5 32a7.75 7.75 0 0 0 .32 2.41l2.34.51c.11.2.22.4.35.59l-.74 2.28a8.18 8.18 0 0 0 1.92 1.49l2-1.31q.33.11.66.18l1.09 2.13a8.08 8.08 0 0 0 2.42-.31l.5-2.35a5.66 5.66 0 0 0 .59-.34l2.29.74a8.25 8.25 0 0 0 1.48-1.93l-1.3-2a4.55 4.55 0 0 0 .17-.66z"/><circle class="cls-2" cx="9.63" cy="32.13" r="2.59"/><path class="cls-3" d="M23.74 45.26a7.29 7.29 0 0 1 .7-12.49M31.11 32.7a7.3 7.3 0 0 1 .62 12.69"/><path class="cls-4" d="M31.11 32.7v4.52A2.07 2.07 0 0 1 29 39.29h-2.49a2.07 2.07 0 0 1-2.07-2.07v-4.45"/><path class="cls-2" d="M58 28.6V34a8.82 8.82 0 0 1-8.79 8.8h0a8.83 8.83 0 0 1-8.8-8.8v-5.4"/><path class="cls-4" d="M23.75 60.97V45.25M31.73 45.25v4.6M30.23 62.36V52.11a3.34 3.34 0 0 1 1.5-2.59C33.15 48.73 43.89 46 43.89 46v-5M68.5 62.36V52.11s.1-1.11-1.5-2.26S54.88 46 54.88 46v-5"/><path class="cls-4" d="M35.33 62.36v-5.12h1.63v-3.43M36.96 51.24V47.8M40.73 46.77v4.47M40.73 53.81v3.1h16.83v-3.1M57.56 51.24v-4.47M61.32 47.8v3.44M61.32 54.06v3.1H63v5.2M43.89 46s1.61 1.58 5.32 1.58A9.47 9.47 0 0 0 54.88 46M46.21 16.66a9.67 9.67 0 0 0-6.47 8.83h-.93a1.56 1.56 0 0 0-1.55 1.56 1.56 1.56 0 0 0 1.55 1.55h21a1.56 1.56 0 0 0 1.55-1.55 1.56 1.56 0 0 0-1.55-1.56H59a9.65 9.65 0 0 0-6.46-8.83"/><path class="cls-4" d="m53.51 20.81-1.38-6.09s-.2-1-1-1.14a11.44 11.44 0 0 0-3.44 0c-.82.13-1 1.14-1 1.14l-1.39 6.09"/></g></g></svg>