<svg xmlns="http://www.w3.org/2000/svg" viewBox="0 0 70 70" width="70" height="70"><defs><style>.a,.b,.c{fill:none;}.b,.c{stroke:#000;stroke-miterlimit:10;stroke-width:1.5px;}.b{stroke-linecap:square;}.d{fill:#000;}</style></defs><rect class="a" width="70" height="70"/><rect class="b" x="4.74" y="24.94" width="11.49" height="23.12" transform="translate(11.59 -1.46) rotate(17.69)"/><rect class="b" x="53.66" y="25.18" width="11.49" height="23.12" transform="translate(-8.55 20.61) rotate(-18.38)"/><polyline class="c" points="16.35 26.23 16.35 3.95 41.17 3.95 41.17 3.95 41.12 16.68 53.85 16.68 53.85 26.4"/><line class="c" x1="54.11" y1="16.5" x2="41.4" y2="3.79"/><rect class="c" x="12.1" y="51.22" width="5.37" height="8.69" rx="2.61" transform="translate(31.25 0.47) rotate(31.54)"/><rect class="c" x="27.87" y="58.88" width="5.37" height="7.2" rx="2.39" transform="translate(37.2 -6.75) rotate(31.54)"/><path class="c" d="M37.19,59.5l2,1.12a2.46,2.46,0,0,1,1,3.31l-.33.6a2.45,2.45,0,0,1-3.31,1l-2-1.12a2.43,2.43,0,0,1-1.16-1.46"/><path class="c" d="M39.9,53.81,44,56a3.09,3.09,0,0,1,1.21,4.18l-.07.13a3.08,3.08,0,0,1-4.18,1.21l-6.16-3.39"/><path class="c" d="M49,51.4a3.17,3.17,0,0,1,1.25,4.3l-.07.13a3.18,3.18,0,0,1-4.31,1.25l-6-3.27"/><path class="c" d="M42.47,47.81l8.84,4.87a3,3,0,0,0,4-1.17l.06-.12a3,3,0,0,0,0-2.92,3,3,0,0,0-1.15-1.13l-8.84-4.86s-4.25-2.23-5.24-2.18S29.07,44.05,27.8,44,25.56,42.77,25,41.9a7.42,7.42,0,0,1-.82-2s1.31-2.82,7-5.7,6.56-4.1,9.54-3.69,4.46,2.2,6.57,2.41a11.81,11.81,0,0,0,4.56-.73"/><rect class="c" x="15.84" y="55.31" width="5.84" height="8.98" rx="2.77" transform="translate(34.05 -0.98) rotate(31.54)"/><rect class="c" x="21.77" y="56.82" width="5.84" height="8.98" rx="2.77" transform="translate(35.72 -3.86) rotate(31.54)"/><line class="c" x1="57.07" y1="47.93" x2="55.4" y2="48.47"/><line class="c" x1="12.69" y1="48.47" x2="13.92" y2="52.08"/><path class="c" d="M18.07,31.63a6.5,6.5,0,0,0,4.72.66c2.25-.77,3.23-2.8,6.05-2.42a22.32,22.32,0,0,1,6.26,2.22"/><circle class="c" cx="14.05" cy="29.52" r="0.74"/><circle class="c" cx="55.4" cy="29.84" r="0.74"/><path class="d" d="M35,12.73a4.1,4.1,0,0,1-.28,1.52,3.64,3.64,0,0,1-.8,1.22,4.18,4.18,0,0,1-1.5,1,6.13,6.13,0,0,1-2.17.32H28.8v1.51h2.65v1.26H28.8v1.83H27.16V19.51h-1V18.25h1V9h3.1a8.35,8.35,0,0,1,1.87.19,3.75,3.75,0,0,1,1.35.59A3.33,3.33,0,0,1,34.56,11,3.69,3.69,0,0,1,35,12.73Zm-1.71,0A2.68,2.68,0,0,0,33,11.66a1.79,1.79,0,0,0-.67-.77,2.39,2.39,0,0,0-.91-.37,6.52,6.52,0,0,0-1.29-.11H28.8v4.93h1.12a6.4,6.4,0,0,0,1.61-.16,2.23,2.23,0,0,0,1-.57,2.36,2.36,0,0,0,.53-.82A2.88,2.88,0,0,0,33.24,12.77Z"/></svg>